<svg width="84" height="58" viewBox="0 0 84 58" fill="none" xmlns="http://www.w3.org/2000/svg">
<rect x="0.5" y="0.5" width="83" height="57" rx="3.5" fill="white" stroke="#F3F3F3"/>
<path fill-rule="evenodd" clip-rule="evenodd" d="M47.1222 31.2325H45.7209C45.5827 31.2251 45.4738 31.1094 45.472 30.9681V23.5965C45.4868 23.4566 45.6042 23.3516 45.742 23.3551H47.0463C47.1651 23.3589 47.2668 23.4431 47.2952 23.5609V24.6883H47.3226C47.7159 23.6804 48.2672 23.2 49.238 23.2C49.8677 23.2 50.4825 23.4326 50.8796 24.0681C51.2467 24.6578 51.2467 25.6504 51.2467 26.3634V31.0011C51.2262 31.1364 51.1107 31.2353 50.9766 31.2325H49.5628C49.436 31.2269 49.3312 31.1295 49.3139 31.0011V26.9989C49.3139 26.9364 49.3145 26.8717 49.315 26.8054V26.8048C49.3218 26.0168 49.3304 25.0137 48.434 25.0137C48.0731 25.0307 47.7551 25.2611 47.6201 25.6034C47.4234 26.0533 47.3973 26.5032 47.3973 27.0014V30.9681C47.3919 31.1177 47.2701 31.2353 47.1235 31.2325H47.1222ZM41.1857 23.2102C43.2728 23.2102 44.4016 25.0403 44.4016 27.3662C44.4016 29.6145 43.1571 31.3977 41.1857 31.3977C39.1384 31.3977 38.0233 29.5675 38.0233 27.2887C38.0233 25.0098 39.1521 23.2102 41.1857 23.2102ZM41.1994 24.715C40.1627 24.715 40.0967 26.1562 40.0967 27.0561V27.0859C40.0966 27.9976 40.0963 29.8776 41.1857 29.8776C42.2871 29.8776 42.3282 28.327 42.3282 27.3814C42.3282 26.7612 42.3021 26.0164 42.1179 25.428C41.9598 24.9196 41.645 24.715 41.1994 24.715ZM15.2044 31.2478H13.7993C13.669 31.2408 13.5631 31.1376 13.5504 31.0049V23.6334C13.5551 23.4857 13.6745 23.3688 13.8192 23.3703H15.1297C15.264 23.3779 15.3712 23.4874 15.3786 23.6245V24.5866H15.4048C15.7458 23.655 16.3892 23.2216 17.2554 23.2216C18.1216 23.2216 18.6854 23.655 19.0799 24.5866C19.3433 23.8697 19.9648 23.3535 20.7058 23.2363C21.4468 23.1191 22.1921 23.4191 22.6556 24.021C23.0379 24.5517 23.0256 25.2909 23.0141 25.9852V25.9853V25.9853V25.9853V25.9853V25.9853V25.9854V25.9854C23.0122 26.1025 23.0103 26.2183 23.0103 26.3316V30.9821C23.0089 31.0541 22.9796 31.1226 22.9287 31.1725C22.8777 31.2223 22.8095 31.2494 22.7389 31.2478H21.3338C21.1956 31.2403 21.0867 31.1247 21.0849 30.9833V27.0764C21.0849 27.0172 21.0859 26.9411 21.087 26.8547V26.8546V26.8546V26.8546V26.8546V26.8545V26.8545V26.8545C21.0915 26.4878 21.0985 25.9347 21.0451 25.6962C20.9406 25.2005 20.6257 25.0607 20.2187 25.0607C19.8457 25.0723 19.5153 25.3097 19.3786 25.6644C19.2446 26.0113 19.2457 26.5698 19.2466 26.9836L19.2467 27.0764V30.9821C19.2454 31.0539 19.2162 31.1222 19.1656 31.172C19.1149 31.2218 19.047 31.2491 18.9767 31.2478H17.5678C17.4299 31.2397 17.3213 31.1244 17.3189 30.9833V27.0764C17.3189 26.9964 17.3201 26.9126 17.3213 26.8266C17.3325 26.0297 17.3464 25.0429 16.4477 25.0429C15.4756 25.0429 15.4764 26.1661 15.4769 27.0153L15.477 27.0764V30.9821C15.4757 31.0541 15.4463 31.1226 15.3954 31.1725C15.3445 31.2223 15.2762 31.2494 15.2057 31.2478H15.2044ZM11.0215 31.3379C11.1282 31.3993 11.2612 31.3856 11.3538 31.3036L11.365 31.3062C11.645 31.0507 12.1553 30.5982 12.4427 30.3529C12.5523 30.2576 12.5324 30.0987 12.4427 29.9717C12.4154 29.9332 12.3879 29.8955 12.3605 29.858C12.1301 29.5426 11.9113 29.2431 11.9113 28.641V26.4053C11.9113 26.3331 11.9117 26.2614 11.912 26.1901C11.9163 25.3268 11.9202 24.5368 11.289 23.9333C10.7514 23.4046 9.85781 23.2191 9.1733 23.2191C7.8354 23.2191 6.34194 23.7287 6.02956 25.4165C6.0166 25.4849 6.03164 25.5556 6.07115 25.6123C6.11066 25.669 6.1712 25.7066 6.23864 25.7165L7.59023 25.8677C7.72222 25.8473 7.82431 25.7389 7.83914 25.6034C7.95613 25.0225 8.43404 24.7417 8.97044 24.7417C9.26166 24.7417 9.58774 24.8497 9.75949 25.1141C9.93575 25.3795 9.93301 25.7318 9.93055 26.0482C9.93027 26.0847 9.92999 26.1208 9.92999 26.1562V26.3418C9.80237 26.3565 9.66862 26.3705 9.53086 26.3848L9.53079 26.3848L9.53069 26.3848L9.53057 26.3849L9.53045 26.3849L9.53037 26.3849L9.53031 26.3849L9.53027 26.3849L9.53025 26.3849L9.53024 26.3849C8.78818 26.4623 7.92985 26.5517 7.28656 26.84C6.41537 27.2289 5.79309 28.0207 5.79309 29.1862C5.79309 30.6783 6.71406 31.4244 7.89763 31.4244C8.89701 31.4244 9.44337 31.1841 10.2162 30.3809C10.2535 30.4363 10.2871 30.4875 10.3188 30.5358L10.3188 30.5358C10.5032 30.8167 10.6233 30.9996 11.0215 31.3379ZM9.93625 27.873L9.93621 27.8034V27.4946C8.91941 27.4946 7.84536 27.717 7.84536 28.9396C7.84536 29.5624 8.16023 29.9818 8.69912 29.9818C9.09489 29.9818 9.44959 29.7327 9.67361 29.3286C9.93717 28.8499 9.93675 28.4017 9.93625 27.873V27.873ZM30.8696 29.9666C30.8422 29.9281 30.8146 29.8903 30.7872 29.8528C30.5569 29.5374 30.3382 29.238 30.3382 28.6371V26.4003C30.3382 26.3241 30.3386 26.2484 30.339 26.1733V26.173V26.1727V26.1724V26.1722V26.1719V26.1716V26.1714C30.3439 25.3125 30.3484 24.5286 29.7159 23.9283C29.177 23.3995 28.2834 23.214 27.6002 23.214C26.2623 23.214 24.7688 23.7224 24.4552 25.4115C24.4419 25.4802 24.4569 25.5514 24.4967 25.6084C24.5365 25.6654 24.5976 25.7032 24.6655 25.7127L26.0283 25.8626C26.1601 25.8418 26.262 25.7336 26.2772 25.5983C26.3954 25.0175 26.8709 24.7366 27.4073 24.7366C27.6972 24.7366 28.0295 24.8459 28.1963 25.1102C28.3738 25.3747 28.3711 25.7271 28.3686 26.0436C28.3683 26.08 28.3681 26.1159 28.3681 26.1512V26.3329C28.2429 26.3472 28.1117 26.3607 27.9767 26.3746C27.2325 26.4514 26.3693 26.5405 25.7246 26.8298C24.8435 27.2188 24.2249 28.0106 24.2249 29.1773C24.2249 30.6681 25.1459 31.4142 26.3295 31.4142C27.3251 31.4142 27.8752 31.174 28.6468 30.3707C28.6835 30.4252 28.7166 30.4756 28.7478 30.523L28.7479 30.5232C28.9349 30.8078 29.0534 30.988 29.4533 31.3278C29.56 31.3887 29.6925 31.3756 29.7856 31.2947C30.0656 31.0405 30.5759 30.5868 30.8634 30.3415C30.9841 30.2538 30.9642 30.0987 30.8696 29.9666ZM28.1067 29.3222C27.8839 29.7251 27.528 29.9742 27.1335 29.9742C26.5946 29.9742 26.2797 29.5548 26.2797 28.9333C26.2797 27.7093 27.3537 27.4882 28.3705 27.4882V27.7983L28.3706 27.8553C28.3709 28.3906 28.3712 28.841 28.1067 29.3222ZM32.0594 24.6578V23.608C32.0561 23.5361 32.0828 23.4662 32.1329 23.4155C32.1829 23.3649 32.2517 23.3383 32.322 23.3423H36.943C37.0133 23.3399 37.0815 23.3669 37.1318 23.4171C37.1821 23.4672 37.2101 23.5362 37.2094 23.608V24.5116C37.2094 24.6629 37.0849 24.8611 36.8621 25.1738L34.4676 28.6638C35.3562 28.6422 36.2959 28.7782 37.1036 29.2421C37.2528 29.3234 37.3478 29.4801 37.3525 29.6526V30.7813C37.3525 30.9363 37.187 31.1155 37.0115 31.0227C35.4786 30.2182 33.6591 30.2215 32.1291 31.0316C31.9686 31.1193 31.8005 30.9427 31.8005 30.7876V29.7137C31.7859 29.4605 31.8457 29.2086 31.9723 28.9905L34.7464 24.9234H32.327C32.2565 24.9262 32.188 24.8994 32.1374 24.8492C32.0869 24.799 32.0587 24.7298 32.0594 24.6578ZM56.4838 24.279C56.837 23.961 57.2406 23.7065 57.6773 23.5266C58.0899 23.3587 58.53 23.2724 58.9741 23.2724C59.4156 23.2641 59.8535 23.3543 60.2573 23.5368C60.6377 23.7149 60.971 23.9834 61.2293 24.3197C61.5105 24.6923 61.7184 25.117 61.8416 25.5703C61.9908 26.1076 62.063 26.6641 62.0556 27.2226C62.0624 27.7929 61.9852 28.361 61.8266 28.9079C61.6939 29.3719 61.4764 29.8062 61.1857 30.1877C60.9157 30.5346 60.5729 30.8152 60.1826 31.0088C59.7724 31.2032 59.3242 31.2993 58.8721 31.2896C58.0271 31.3039 57.2093 30.9853 56.5883 30.4V33.9281C56.6002 34.0112 56.573 34.095 56.5149 34.1543C56.4568 34.2137 56.3747 34.2415 56.2934 34.2294H55.4222C55.3409 34.2415 55.2588 34.2137 55.2007 34.1543C55.1426 34.095 55.1153 34.0112 55.1272 33.9281V23.7973C55.1159 23.7144 55.1433 23.6309 55.2013 23.5717C55.2592 23.5126 55.341 23.4846 55.4222 23.4961H56.0706C56.1552 23.488 56.2394 23.5157 56.3035 23.5726C56.3677 23.6294 56.4063 23.7107 56.4103 23.7973L56.4838 24.279ZM58.5622 24.4748C57.8476 24.4805 57.1543 24.7237 56.5871 25.1674V29.3616C57.216 29.8446 57.8644 30.0856 58.5323 30.0848C59.8881 30.0848 60.5659 29.1527 60.5659 27.2887C60.5659 25.4246 59.898 24.4862 58.5622 24.4735V24.4748ZM63.8963 24.8459L64.0071 24.8078C64.7081 24.5873 65.4367 24.4717 66.1701 24.4646C66.7601 24.4654 67.1728 24.576 67.4085 24.7963C67.6441 25.0166 67.7619 25.3979 67.7619 25.9402V26.929C67.1549 26.77 66.5317 26.6846 65.9051 26.6748C65.0405 26.6739 64.3527 26.8921 63.8416 27.3293C63.3305 27.7665 63.0749 28.3512 63.0749 29.0833C63.0766 29.7653 63.284 30.3097 63.6972 30.7164C64.1104 31.1231 64.6705 31.3265 65.3774 31.3265C65.8145 31.3246 66.2473 31.2384 66.653 31.0723C67.0809 30.9017 67.477 30.6576 67.8242 30.3504L67.8988 30.8473C67.9025 30.9299 67.9393 31.0072 68.0005 31.0613C68.0616 31.1154 68.1419 31.1414 68.2224 31.1333H68.8571C68.9383 31.1449 69.0201 31.1169 69.0781 31.0577C69.136 30.9985 69.1634 30.915 69.1521 30.8321V25.6898C69.1513 24.8662 68.9297 24.2591 68.4875 23.8685C68.0453 23.4779 67.3575 23.2826 66.424 23.2826C65.9595 23.2826 65.4959 23.3252 65.0388 23.4097C64.6399 23.4748 64.2495 23.5861 63.8752 23.7414C63.7846 23.7727 63.7036 23.8275 63.64 23.9003C63.5916 23.9898 63.5708 24.0921 63.5802 24.1939V24.5968C63.5802 24.7785 63.6474 24.8688 63.7719 24.8688C63.8143 24.8681 63.8564 24.8604 63.8963 24.8459ZM66.7489 30.0047C66.4234 30.1289 66.0794 30.1947 65.7321 30.1992C65.3487 30.2 65.0538 30.0975 64.8472 29.8916C64.6406 29.6857 64.5373 29.3921 64.5373 29.0108C64.5365 28.1372 65.0919 27.7005 66.2038 27.7005C66.4672 27.701 66.7303 27.7188 66.9915 27.7538C67.2519 27.7873 67.5103 27.8348 67.7657 27.8962V29.4328C67.4569 29.6747 67.1141 29.8675 66.7489 30.0047ZM73.0264 33.9574C73.3749 33.6557 73.6823 33.1588 73.9486 32.4665L77.1919 24.0376C77.2455 23.9234 77.2804 23.801 77.2952 23.6753C77.2952 23.5559 77.2268 23.4949 77.0886 23.4949H76.2635C76.1501 23.4838 76.0363 23.51 75.9386 23.5698C75.8554 23.6648 75.7953 23.7784 75.7632 23.9016L73.7719 29.7416L71.7072 23.9016C71.675 23.7784 71.6149 23.6648 71.5317 23.5698C71.434 23.51 71.3202 23.4838 71.2069 23.4949H70.322C70.1851 23.4949 70.1166 23.5559 70.1166 23.6753C70.1308 23.801 70.1653 23.9234 70.2187 24.0376L73.0587 31.207L72.7787 31.9696C72.612 32.4517 72.4253 32.783 72.2187 32.9635C71.9698 33.1582 71.6604 33.2544 71.3475 33.2342C71.2145 33.237 71.0816 33.2268 70.9505 33.2037C70.8775 33.1877 70.8035 33.1779 70.7289 33.1745C70.5808 33.1745 70.5074 33.2698 70.5074 33.4604V33.8519C70.4992 33.9598 70.5249 34.0675 70.5808 34.1595C70.6421 34.2325 70.7252 34.283 70.8173 34.3031C71.0914 34.3769 71.374 34.4124 71.6574 34.4086C72.2216 34.4094 72.6779 34.259 73.0264 33.9574Z" fill="#232F3E"/>
<path fill-rule="evenodd" clip-rule="evenodd" d="M34.3705 35.935C34.6904 35.1228 35.4023 33.3028 35.0637 32.8618H35.0662C34.7292 32.4198 32.8374 32.6518 31.9865 32.7561L31.9847 32.7563C31.7259 32.7881 31.686 32.558 31.9188 32.3916C33.4296 31.3074 35.9051 31.6175 36.1926 31.9836C36.4801 32.3496 36.1142 34.8839 34.6991 36.0938C34.4813 36.2794 34.2735 36.1803 34.3705 35.935ZM24.2038 37.1881C27.4944 37.1881 31.3264 36.1269 33.966 34.1378V34.1417C34.4029 33.8061 34.0283 33.313 33.5827 33.5062C30.7014 34.7473 27.6084 35.3952 24.4813 35.4126C20.1428 35.4126 15.9462 34.1976 12.551 32.1806C12.2536 32.0039 12.032 32.3153 12.2809 32.5428C15.5495 35.5544 19.8015 37.2111 24.2038 37.1881Z" fill="#FF9900"/>
</svg>
