<svg width="45" height="30" viewBox="0 0 45 30" fill="none" xmlns="http://www.w3.org/2000/svg">
<rect x="0.772949" y="0.5" width="43.5455" height="29" rx="3.5" fill="white" stroke="#F3F3F3"/>
<path fill-rule="evenodd" clip-rule="evenodd" d="M16.5929 23.168V24.2756V25.3833H16.0958V25.1143C15.9381 25.3138 15.6988 25.439 15.3736 25.439C14.7325 25.439 14.2299 24.9525 14.2299 24.2756C14.2299 23.5992 14.7325 23.1123 15.3736 23.1123C15.6988 23.1123 15.9381 23.2375 16.0958 23.4369V23.168H16.5929ZM15.4355 23.5664C15.0051 23.5664 14.7418 23.8862 14.7418 24.2756C14.7418 24.665 15.0051 24.9849 15.4355 24.9849C15.8467 24.9849 16.1242 24.6788 16.1242 24.2756C16.1242 23.8724 15.8467 23.5664 15.4355 23.5664ZM33.3926 24.2756C33.3926 23.8862 33.656 23.5664 34.0863 23.5664C34.498 23.5664 34.7751 23.8724 34.7751 24.2756C34.7751 24.6788 34.498 24.9849 34.0863 24.9849C33.656 24.9849 33.3926 24.665 33.3926 24.2756ZM35.2443 22.2783V24.2756V25.3833H34.7466V25.1143C34.5889 25.3138 34.3496 25.439 34.0244 25.439C33.3833 25.439 32.8807 24.9525 32.8807 24.2756C32.8807 23.5992 33.3833 23.1123 34.0244 23.1123C34.3496 23.1123 34.5889 23.2375 34.7466 23.4369V22.2783H35.2443ZM22.7639 23.5435C23.0841 23.5435 23.29 23.7382 23.3426 24.0809H22.1561C22.2092 23.761 22.4096 23.5435 22.7639 23.5435ZM21.6349 24.2756C21.6349 23.5849 22.1036 23.1123 22.7737 23.1123C23.4143 23.1123 23.8545 23.5849 23.8594 24.2756C23.8594 24.3403 23.8545 24.4008 23.8496 24.4608H22.1517C22.2235 24.8597 22.5153 25.0034 22.8356 25.0034C23.065 25.0034 23.3092 24.9196 23.5008 24.7716L23.7444 25.1286C23.4668 25.3557 23.1515 25.439 22.8071 25.439C22.1227 25.439 21.6349 24.9801 21.6349 24.2756ZM28.7766 24.2756C28.7766 23.8862 29.0399 23.5664 29.4703 23.5664C29.8814 23.5664 30.159 23.8724 30.159 24.2756C30.159 24.6788 29.8814 24.9849 29.4703 24.9849C29.0399 24.9849 28.7766 24.665 28.7766 24.2756ZM30.6277 23.168V24.2756V25.3833H30.1306V25.1143C29.9723 25.3138 29.7336 25.439 29.4084 25.439C28.7673 25.439 28.2647 24.9525 28.2647 24.2756C28.2647 23.5992 28.7673 23.1123 29.4084 23.1123C29.7336 23.1123 29.9723 23.2375 30.1306 23.4369V23.168H30.6277ZM25.9689 24.2756C25.9689 24.9477 26.4518 25.439 27.1888 25.439C27.5332 25.439 27.7626 25.3647 28.0111 25.1748L27.7724 24.7854C27.5857 24.9154 27.3897 24.9849 27.174 24.9849C26.7771 24.9801 26.4852 24.7021 26.4852 24.2756C26.4852 23.8491 26.7771 23.5711 27.174 23.5664C27.3897 23.5664 27.5857 23.6358 27.7724 23.7658L28.0111 23.3764C27.7626 23.1865 27.5332 23.1123 27.1888 23.1123C26.4518 23.1123 25.9689 23.6035 25.9689 24.2756ZM31.7757 23.4369C31.9049 23.2422 32.0916 23.1123 32.3785 23.1123C32.4793 23.1123 32.6227 23.1308 32.7328 23.1727L32.5795 23.6268C32.4743 23.5849 32.3692 23.5711 32.2685 23.5711C31.9433 23.5711 31.7807 23.7748 31.7807 24.1414V25.3833H31.283V23.168H31.7757V23.4369ZM19.0517 23.3441C18.8125 23.1913 18.4829 23.1123 18.1193 23.1123C17.5401 23.1123 17.1672 23.3812 17.1672 23.8215C17.1672 24.1828 17.4448 24.4056 17.9562 24.4751L18.191 24.5074C18.4637 24.5446 18.5924 24.6141 18.5924 24.7393C18.5924 24.9106 18.4106 25.0082 18.0711 25.0082C17.7268 25.0082 17.4782 24.9016 17.3106 24.7764L17.0763 25.1514C17.349 25.3461 17.6934 25.439 18.0662 25.439C18.7265 25.439 19.1092 25.1376 19.1092 24.7159C19.1092 24.3265 18.8081 24.1228 18.3104 24.0533L18.0761 24.0204C17.8609 23.9929 17.6884 23.9515 17.6884 23.803C17.6884 23.6406 17.851 23.5435 18.1237 23.5435C18.4155 23.5435 18.698 23.6502 18.8365 23.7335L19.0517 23.3441ZM24.8641 23.4369C24.9928 23.2422 25.1795 23.1123 25.4663 23.1123C25.5671 23.1123 25.7105 23.1308 25.8206 23.1727L25.6673 23.6268C25.5622 23.5849 25.457 23.5711 25.3563 23.5711C25.0311 23.5711 24.8685 23.7748 24.8685 24.1414V25.3833H24.3713V23.168H24.8641V23.4369ZM21.2236 23.168H20.4106V22.4958H19.908V23.168H19.4442V23.6083H19.908V24.6188C19.908 25.1329 20.1138 25.439 20.7019 25.439C20.9176 25.439 21.1661 25.3742 21.3238 25.2676L21.1804 24.8549C21.032 24.9382 20.8694 24.9801 20.7402 24.9801C20.4916 24.9801 20.4106 24.8316 20.4106 24.6093V23.6083H21.2236V23.168ZM13.7902 23.9929V25.3833H13.2876V24.1504C13.2876 23.7748 13.125 23.5664 12.7855 23.5664C12.4554 23.5664 12.226 23.7706 12.226 24.1552V25.3833H11.7234V24.1504C11.7234 23.7748 11.5564 23.5664 11.2262 23.5664C10.8862 23.5664 10.6661 23.7706 10.6661 24.1552V25.3833H10.1641V23.168H10.6617V23.4412C10.8484 23.1818 11.0872 23.1123 11.3313 23.1123C11.6807 23.1123 11.9292 23.2608 12.0869 23.5064C12.2977 23.1955 12.5988 23.1075 12.8906 23.1123C13.4458 23.117 13.7902 23.4693 13.7902 23.9929Z" fill="#231F20"/>
<path d="M26.4215 19.4036H18.8867V6.28369H26.4215V19.4036Z" fill="#FF5F00"/>
<path d="M19.3647 12.844C19.3647 10.1826 20.6508 7.81183 22.6536 6.28403C21.189 5.16683 19.3406 4.50001 17.3318 4.50001C12.5762 4.50001 8.72119 8.23568 8.72119 12.844C8.72119 17.4523 12.5762 21.188 17.3318 21.188C19.3406 21.188 21.189 20.5212 22.6536 19.404C20.6508 17.8762 19.3647 15.5054 19.3647 12.844Z" fill="#EB001B"/>
<path d="M36.5867 12.844C36.5867 17.4523 32.7318 21.188 27.9761 21.188C25.9673 21.188 24.1189 20.5212 22.6538 19.404C24.6571 17.8762 25.9432 15.5054 25.9432 12.844C25.9432 10.1826 24.6571 7.81183 22.6538 6.28403C24.1189 5.16683 25.9673 4.50001 27.9761 4.50001C32.7318 4.50001 36.5867 8.23568 36.5867 12.844Z" fill="#F79E1B"/>
</svg>
